<?xml version="1.0" ?><svg width="64px" height="64px" viewBox="0 0 64 64" id="svg5" version="1.1" xml:space="preserve" xmlns="http://www.w3.org/2000/svg" xmlns:svg="http://www.w3.org/2000/svg"><defs id="defs2"/><g id="layer1" transform="translate(-192,-288)"><path d="m 202,297 h 49 v 6 h -49 z" id="path26957" style="fill:#3e4f59;fill-opacity:1;fill-rule:evenodd;stroke-width:2;stroke-linecap:round;stroke-linejoin:round;stroke-miterlimit:4.1"/><path d="m 202,303 h 49 v 40 h -49 z" id="path26959" style="fill:#acbec2;fill-opacity:1;fill-rule:evenodd;stroke-width:2.00001;stroke-linecap:round;stroke-linejoin:round;stroke-miterlimit:4.1"/><path d="m 202,303 v 40 h 29.76953 a 28.484051,41.392605 35.599482 0 0 18.625,-40 z" id="path26961" style="fill:#e8edee;fill-opacity:1;fill-rule:evenodd;stroke:none;stroke-width:2.00002;stroke-linecap:round;stroke-linejoin:round;stroke-miterlimit:4.1"/><path d="m 204,296 c -1.64501,0 -3,1.355 -3,3 v 40 c 0,0.55229 0.44772,1 1,1 0.55229,0 1,-0.44771 1,-1 v -40 c 0,-0.56413 0.43587,-1 1,-1 h 45 c 0.56413,0 1,0.43587 1,1 v 3 h -42 c -0.55228,0 -1,0.44772 -1,1 0,0.55229 0.44772,1 1,1 h 42 v 37 c 0,0.56413 -0.43587,1 -1,1 h -49 c -0.55228,0 -1,0.44772 -1,1 0,0.55229 0.44772,1 1,1 h 49 c 1.64501,0 3,-1.35499 3,-3 0,-14 0,-28 0,-42 0,-1.645 -1.35499,-3 -3,-3 z" id="path26963" style="color:#000000;fill:#000000;fill-rule:evenodd;stroke-linecap:round;stroke-linejoin:round;stroke-miterlimit:4.1"/><path d="m 247,299 c -0.55228,0 -1,0.44772 -1,1 0,0.55229 0.44772,1 1,1 0.55229,0 1,-0.44771 1,-1 0,-0.55228 -0.44771,-1 -1,-1 z" id="path26965" style="color:#000000;fill:#ed7161;fill-opacity:1;fill-rule:evenodd;stroke-linecap:round;stroke-linejoin:round;stroke-miterlimit:4.1;-inkscape-stroke:none"/><path d="m 243,299 c -0.55228,0 -1,0.44772 -1,1 0,0.55229 0.44772,1 1,1 0.55229,0 1,-0.44771 1,-1 0,-0.55228 -0.44771,-1 -1,-1 z" id="path26967" style="color:#000000;fill:#ecba16;fill-opacity:1;fill-rule:evenodd;stroke-linecap:round;stroke-linejoin:round;stroke-miterlimit:4.1;-inkscape-stroke:none"/><path d="m 239,299 c -0.55228,0 -1,0.44772 -1,1 0,0.55229 0.44772,1 1,1 0.55229,0 1,-0.44771 1,-1 0,-0.55228 -0.44771,-1 -1,-1 z" id="path26969" style="color:#000000;fill:#42b05c;fill-opacity:1;fill-rule:evenodd;stroke-linecap:round;stroke-linejoin:round;stroke-miterlimit:4.1;-inkscape-stroke:none"/><path d="m 197,342 a 1,1 0 0 0 -1,1 1,1 0 0 0 1,1 1,1 0 0 0 1,-1 1,1 0 0 0 -1,-1 z" id="path26971" style="color:#000000;fill:#000000;fill-rule:evenodd;stroke-linecap:round;stroke-linejoin:round;stroke-miterlimit:4.1;-inkscape-stroke:none"/><path d="m 205,302 c -0.55228,0 -1,0.44772 -1,1 0,0.55229 0.44772,1 1,1 0.55229,0 1,-0.44771 1,-1 0,-0.55228 -0.44771,-1 -1,-1 z" id="path26973" style="color:#000000;fill:#000000;fill-rule:evenodd;stroke-linecap:round;stroke-linejoin:round;stroke-miterlimit:4.1;-inkscape-stroke:none"/><path d="m 215.99998,319.99999 a 2.99999,2.99999 0 0 1 -2.99999,3 2.99999,2.99999 0 0 1 -2.99999,-3 2.99999,2.99999 0 0 1 2.99999,-2.99998 2.99999,2.99999 0 0 1 2.99999,2.99998 z" id="path19754" style="fill:#fe73c5;fill-opacity:1;fill-rule:evenodd;stroke:none;stroke-width:2;stroke-linecap:round;stroke-linejoin:round;stroke-miterlimit:4.1"/><path d="m 242.99997,319.99999 a 2.99999,2.99999 0 0 1 -2.99999,3 2.99999,2.99999 0 0 1 -2.99999,-3 2.99999,2.99999 0 0 1 2.99999,-2.99998 2.99999,2.99999 0 0 1 2.99999,2.99998 z" id="path19757" style="fill:#0075d3;fill-opacity:1;fill-rule:evenodd;stroke:none;stroke-width:2;stroke-linecap:round;stroke-linejoin:round;stroke-miterlimit:4.1"/><g id="g23128" transform="translate(-1.8785303e-5)"><g id="path22759"><path d="m 224.00002,316 a 1,1 0 0 0 -0.70703,0.29297 l -3,3 a 1.0001,1.0001 0 0 0 0,1.41406 l 3,3 a 1,1 0 0 0 1.41406,0 1,1 0 0 0 0,-1.41406 L 223.41408,321 h 7.58594 a 1,1 0 0 0 1,-1 1,1 0 0 0 -1,-1 h -7.58594 l 1.29297,-1.29297 a 1,1 0 0 0 0,-1.41406 A 1,1 0 0 0 224.00002,316 Z" id="path19716" style="color:#000000;fill:#000000;fill-rule:evenodd;stroke-linecap:round;stroke-linejoin:round;stroke-miterlimit:4.1"/></g></g><g id="g23134" transform="matrix(-1,0,0,1,452.00002,7.0000012)"><g id="path23130"><path d="m 224.00002,316 a 1,1 0 0 1 0.70703,0.29297 1,1 0 0 1 0,1.41406 L 223.41408,319 h 7.58594 a 1,1 0 0 1 1,1 1,1 0 0 1 -1,1 h -7.58594 l 1.29297,1.29297 a 1,1 0 0 1 0,1.41406 1,1 0 0 1 -1.41406,0 l -3,-3 a 1.0001,1.0001 0 0 1 0,-1.41406 l 3,-3 A 1,1 0 0 1 224.00002,316 Z" id="path19730" style="color:#000000;fill:#000000;fill-rule:evenodd;stroke-linecap:round;stroke-linejoin:round;stroke-miterlimit:4.1;-inkscape-stroke:none"/></g></g><path d="m 234.99998,328.99999 c 0,-3.31371 2.23858,-6 5,-6 2.76142,0 4.99998,2.68629 4.99998,6 z" id="path19760" style="fill:#0075d3;fill-opacity:1;fill-rule:evenodd;stroke:none;stroke-width:2.00001;stroke-linecap:round;stroke-linejoin:round;stroke-miterlimit:4.1"/><path d="M 238.82617,317.24414 A 2.99999,2.99999 0 0 0 237,320 a 2.99999,2.99999 0 0 0 3,3 2.99999,2.99999 0 0 0 0.68555,-0.0801 5.7604036,9.6529589 0 0 0 -1.85938,-5.67578 z" id="ellipse13675" style="fill:#0588e2;fill-opacity:1;fill-rule:evenodd;stroke-width:2;stroke-linecap:round;stroke-linejoin:round;stroke-miterlimit:4.1"/><path d="m 240,323 c -2.76142,0 -5,2.68629 -5,6 h 5.07227 a 5.7604036,9.6529589 0 0 0 0.6875,-4.54297 5.7604036,9.6529589 0 0 0 -0.0606,-1.39844 C 240.47074,323.02023 240.23728,323 240,323 Z" id="ellipse13673" style="fill:#0588e2;fill-opacity:1;fill-rule:evenodd;stroke-width:2;stroke-linecap:round;stroke-linejoin:round;stroke-miterlimit:4.1"/><path d="m 240,316 c -2.19728,0 -3.99999,1.80272 -4,4 0,1.09667 0.44883,2.09529 1.17188,2.82031 C 235.25745,324.0148 234,326.37865 234,329 a 1.000105,1.000105 0 0 0 1,1 h 4 a 1.000005,1.000005 0 0 0 1,-1 1.000005,1.000005 0 0 0 -1,-1 h -2.83594 c 0.39188,-2.32414 1.98868,-4 3.83594,-4 1.84726,0 3.44406,1.67586 3.83594,4 H 243 a 1.000005,1.000005 0 0 0 -1,1 1.000005,1.000005 0 0 0 1,1 h 2 a 1.000105,1.000105 0 0 0 1,-1 c 0,-2.62135 -1.25745,-4.9852 -3.17188,-6.17969 C 243.55117,322.09529 244,321.09667 244,320 c -1e-5,-2.19728 -1.80272,-4 -4,-4 z m 0,2 c 1.1164,0 2,0.8836 2,2 0,1.11641 -0.88359,2 -2,2 -1.11641,0 -2,-0.88359 -2,-2 0,-1.1164 0.8836,-2 2,-2 z" id="path19789" style="color:#000000;fill:#000000;fill-rule:evenodd;stroke-linecap:round;stroke-linejoin:round;stroke-miterlimit:4.1"/><path d="m 207.99999,328.99999 c 0,-3.31371 2.23858,-6 5,-6 2.76142,0 4.99998,2.68629 4.99998,6 z" id="path19751" style="fill:#fe73c5;fill-opacity:1;fill-rule:evenodd;stroke:none;stroke-width:2.00001;stroke-linecap:round;stroke-linejoin:round;stroke-miterlimit:4.1"/><path d="M 212.22266,317.10547 A 2.99999,2.99999 0 0 0 210,320 a 2.99999,2.99999 0 0 0 3,3 2.99999,2.99999 0 0 0 1.16211,-0.23438 5.7604036,9.6529589 0 0 0 -1.93945,-5.66015 z" id="path13677" style="fill:#fe93d3;fill-opacity:1;fill-rule:evenodd;stroke:none;stroke-width:2;stroke-linecap:round;stroke-linejoin:round;stroke-miterlimit:4.1"/><path d="m 213,323 c -2.76142,0 -5,2.68629 -5,6 h 5.5625 a 5.7604036,9.6529589 0 0 0 0.6875,-4.54297 5.7604036,9.6529589 0 0 0 -0.0508,-1.28125 C 213.81498,323.06226 213.41344,323 213,323 Z" id="path13671" style="fill:#fe93d3;fill-opacity:1;fill-rule:evenodd;stroke-width:2;stroke-linecap:round;stroke-linejoin:round;stroke-miterlimit:4.1"/><path d="m 213,316 c -2.19728,0 -3.99999,1.80272 -4,4 0,1.09667 0.44883,2.09529 1.17188,2.82031 C 208.25745,324.0148 207,326.37865 207,329 a 1.000105,1.000105 0 0 0 1,1 h 1.94531 a 1.000005,1.000005 0 0 0 1,-1 1.000005,1.000005 0 0 0 -1,-1 h -0.78125 c 0.39188,-2.32414 1.98868,-4 3.83594,-4 1.84726,0 3.44406,1.67586 3.83594,4 H 214 a 1.000005,1.000005 0 0 0 -1,1 1.000005,1.000005 0 0 0 1,1 h 4 a 1.000105,1.000105 0 0 0 1,-1 c 0,-2.62135 -1.25745,-4.9852 -3.17188,-6.17969 C 216.55117,322.09529 217,321.09667 217,320 c -1e-5,-2.19728 -1.80272,-4 -4,-4 z m 0,2 c 1.1164,0 2,0.8836 2,2 0,1.11641 -0.88359,2 -2,2 -1.11641,0 -2,-0.88359 -2,-2 0,-1.1164 0.8836,-2 2,-2 z" id="path19734" style="color:#000000;fill:#000000;fill-rule:evenodd;stroke-linecap:round;stroke-linejoin:round;stroke-miterlimit:4.1"/></g></svg>